<svg width="19" height="13" viewBox="0 0 19 13" fill="none" xmlns="http://www.w3.org/2000/svg">
    <path
        d="M14.1688 7.62499H1.625C1.30625 7.62499 1.03925 7.51699 0.824004 7.30099C0.608754 7.08499 0.500754 6.81799 0.500004 6.49999C0.499254 6.18199 0.607254 5.91499 0.824004 5.69899C1.04075 5.48299 1.30775 5.37499 1.625 5.37499H14.1688L10.9625 2.16874C10.7375 1.94374 10.6295 1.68124 10.6385 1.38124C10.6475 1.08124 10.7555 0.818739 10.9625 0.593739C11.1875 0.368739 11.4549 0.251739 11.7646 0.242739C12.0744 0.233739 12.3414 0.341364 12.5656 0.565614L17.7125 5.71249C17.825 5.82499 17.9049 5.94686 17.9521 6.07811C17.9994 6.20936 18.0226 6.34999 18.0219 6.49999C18.0211 6.64999 17.9979 6.79061 17.9521 6.92186C17.9064 7.05311 17.8265 7.17499 17.7125 7.28749L12.5656 12.4344C12.3406 12.6594 12.0736 12.7674 11.7646 12.7584C11.4556 12.7494 11.1883 12.632 10.9625 12.4062C10.7563 12.1812 10.6483 11.9187 10.6385 11.6187C10.6288 11.3187 10.7368 11.0562 10.9625 10.8312L14.1688 7.62499Z"
        fill="#050505" />
</svg>
