<svg width="25" height="24" viewBox="0 0 25 24" fill="none" xmlns="http://www.w3.org/2000/svg">
    <path
        d="M12.1875 16C11.3964 16 10.623 15.7654 9.96522 15.3259C9.30742 14.8864 8.79473 14.2616 8.49198 13.5307C8.18923 12.7998 8.11002 11.9956 8.26436 11.2196C8.4187 10.4437 8.79966 9.73098 9.35907 9.17157C9.91848 8.61216 10.6312 8.2312 11.4071 8.07686C12.1831 7.92252 12.9873 8.00173 13.7182 8.30448C14.4491 8.60723 15.0739 9.11992 15.5134 9.77772C15.9529 10.4355 16.1875 11.2089 16.1875 12C16.1875 13.0609 15.7661 14.0783 15.0159 14.8284C14.2658 15.5786 13.2484 16 12.1875 16ZM12.1875 10C11.7919 10 11.4053 10.1173 11.0764 10.3371C10.7475 10.5568 10.4911 10.8692 10.3397 11.2346C10.1884 11.6001 10.1488 12.0022 10.2259 12.3902C10.3031 12.7781 10.4936 13.1345 10.7733 13.4142C11.053 13.6939 11.4094 13.8844 11.7973 13.9616C12.1853 14.0387 12.5874 13.9991 12.9529 13.8478C13.3183 13.6964 13.6307 13.44 13.8504 13.1111C14.0702 12.7822 14.1875 12.3956 14.1875 12C14.1875 11.4696 13.9768 10.9609 13.6017 10.5858C13.2266 10.2107 12.7179 10 12.1875 10ZM12.6875 22H11.6875C11.0245 22 10.3886 21.7366 9.91973 21.2678C9.45089 20.7989 9.1875 20.163 9.1875 19.5C9.18949 19.4769 9.18394 19.4538 9.17168 19.4342C9.15942 19.4145 9.14111 19.3994 9.1195 19.391C9.0705 19.367 9.0135 19.419 9.0135 19.419C8.54425 19.8889 7.90792 20.1536 7.24386 20.1553C6.5798 20.157 5.94213 19.8955 5.4705 19.428L4.7645 18.721C4.53208 18.4884 4.34783 18.2122 4.22231 17.9082C4.09679 17.6043 4.03247 17.2786 4.03303 16.9498C4.03359 16.6209 4.09901 16.2954 4.22556 15.9919C4.35211 15.6884 4.53729 15.4128 4.7705 15.181C4.78726 15.1658 4.79837 15.1453 4.802 15.123C4.80563 15.1007 4.80158 15.0777 4.7905 15.058C4.77914 15.0409 4.76388 15.0267 4.74597 15.0166C4.72807 15.0065 4.70803 15.0008 4.6875 15C4.02446 15 3.38857 14.7366 2.91973 14.2678C2.45089 13.7989 2.1875 13.163 2.1875 12.5V11.5C2.1875 10.837 2.45089 10.2011 2.91973 9.73223C3.38857 9.26339 4.02446 9 4.6875 9C4.70981 9.00121 4.73198 8.99577 4.75121 8.98438C4.77043 8.97299 4.78584 8.95615 4.7955 8.936C4.80288 8.91915 4.80472 8.90039 4.80077 8.88242C4.79682 8.86445 4.78727 8.8482 4.7735 8.836C4.5395 8.60386 4.35355 8.32787 4.22629 8.02382C4.09903 7.71976 4.03296 7.3936 4.03184 7.06399C4.03073 6.73438 4.0946 6.40778 4.2198 6.10287C4.345 5.79796 4.52907 5.52072 4.7615 5.287L5.4695 4.578C5.93922 4.11103 6.57465 3.84892 7.237 3.84892C7.89935 3.84892 8.53478 4.11103 9.0045 4.578C9.01824 4.59748 9.03849 4.6114 9.06159 4.61727C9.08469 4.62314 9.10913 4.62056 9.1305 4.61C9.1875 4.58 9.1875 4.5 9.1875 4.5C9.1875 3.83696 9.45089 3.20107 9.91973 2.73223C10.3886 2.26339 11.0245 2 11.6875 2H12.6875C13.3505 2 13.9864 2.26339 14.4553 2.73223C14.9241 3.20107 15.1875 3.83696 15.1875 4.5C15.1875 4.5 15.1825 4.6 15.2375 4.62C15.2577 4.62632 15.2791 4.62734 15.2998 4.62296C15.3204 4.61858 15.3396 4.60895 15.3555 4.595C15.5873 4.35747 15.8643 4.16875 16.1702 4.03994C16.476 3.91113 16.8046 3.84485 17.1365 3.845C17.465 3.84384 17.7904 3.90795 18.0939 4.03361C18.3974 4.15927 18.673 4.34398 18.9045 4.577L19.6045 5.277C20.0732 5.74582 20.3365 6.38159 20.3365 7.0445C20.3365 7.70741 20.0732 8.34318 19.6045 8.812C19.5905 8.833 19.5325 8.876 19.5555 8.936C19.5581 8.94705 19.5628 8.95749 19.5695 8.9667C19.5761 8.97591 19.5845 8.98371 19.5942 8.98966C19.6038 8.99561 19.6146 8.99959 19.6258 9.00136C19.637 9.00314 19.6485 9.00267 19.6595 9C19.9898 8.9975 20.3174 9.06025 20.6234 9.18465C20.9294 9.30906 21.2079 9.49267 21.4427 9.72495C21.6776 9.95722 21.8643 10.2336 21.9921 10.5382C22.1199 10.8428 22.1863 11.1697 22.1875 11.5V12.5C22.1875 13.163 21.9241 13.7989 21.4553 14.2678C20.9864 14.7366 20.3505 15 19.6875 15C19.6275 15 19.5735 15 19.5545 15.049C19.5355 15.098 19.5455 15.129 19.5945 15.17C19.83 15.4014 20.0174 15.6771 20.1458 15.9813C20.2742 16.2854 20.341 16.612 20.3425 16.9422C20.344 17.2723 20.2801 17.5995 20.1544 17.9048C20.0288 18.2101 19.8439 18.4875 19.6105 18.721L18.9105 19.427C18.4408 19.894 17.8053 20.1561 17.143 20.1561C16.4807 20.1561 15.8452 19.894 15.3755 19.427C15.3755 19.427 15.3195 19.359 15.2635 19.379C15.2436 19.385 15.226 19.3971 15.2133 19.4136C15.2005 19.4301 15.1933 19.4502 15.1925 19.471C15.1951 19.8018 15.1323 20.1299 15.0077 20.4364C14.883 20.7428 14.699 21.0216 14.4661 21.2567C14.2333 21.4917 13.9563 21.6784 13.6511 21.806C13.3458 21.9335 13.0183 21.9995 12.6875 22ZM9.8585 17.532L9.9025 17.55C10.2813 17.7095 10.6049 17.9766 10.8333 18.3182C11.0617 18.6599 11.1849 19.061 11.1875 19.472C11.1848 19.5397 11.1957 19.6073 11.2196 19.6707C11.2434 19.7341 11.2797 19.7922 11.3262 19.8414C11.3728 19.8906 11.4288 19.9299 11.4908 19.9572C11.5529 19.9844 11.6197 19.999 11.6875 20H12.6875C12.8201 20 12.9473 19.9473 13.0411 19.8536C13.1348 19.7598 13.1875 19.6326 13.1875 19.5C13.1877 19.0803 13.3122 18.67 13.5453 18.321C13.7785 17.972 14.1098 17.6999 14.4975 17.539C14.8774 17.3825 15.2952 17.3418 15.6982 17.4221C16.1012 17.5023 16.4715 17.6999 16.7625 17.99C16.8083 18.0404 16.8637 18.081 16.9256 18.1094C16.9874 18.1379 17.0543 18.1536 17.1223 18.1557C17.1904 18.1577 17.2581 18.1461 17.3215 18.1214C17.385 18.0967 17.4428 18.0595 17.4915 18.012L18.1915 17.312C18.2381 17.2656 18.275 17.2104 18.3002 17.1496C18.3254 17.0889 18.3384 17.0238 18.3384 16.958C18.3384 16.8922 18.3254 16.8271 18.3002 16.7664C18.275 16.7056 18.2381 16.6504 18.1915 16.604C17.9019 16.3127 17.7029 15.9438 17.6186 15.5418C17.5343 15.1399 17.5683 14.7221 17.7165 14.339C17.7225 14.323 17.7275 14.308 17.7345 14.292L17.7405 14.278C17.8981 13.8987 18.1649 13.5747 18.5069 13.3472C18.8489 13.1197 19.2507 12.9988 19.6615 13C19.7291 13.0025 19.7965 12.9915 19.8597 12.9676C19.923 12.9437 19.9808 12.9074 20.0299 12.8608C20.0789 12.8142 20.1181 12.7583 20.1451 12.6963C20.1722 12.6344 20.1866 12.5676 20.1875 12.5V11.5C20.1875 11.3674 20.1348 11.2402 20.0411 11.1464C19.9473 11.0527 19.8201 11 19.6875 11C19.2703 11.0047 18.8614 10.8842 18.5134 10.654C18.1654 10.4239 17.8945 10.0947 17.7355 9.709L17.7165 9.663C17.5647 9.28566 17.5277 8.87191 17.61 8.47361C17.6924 8.07532 17.8905 7.71019 18.1795 7.424C18.2294 7.37801 18.2697 7.32248 18.2978 7.26069C18.3259 7.19889 18.3414 7.13209 18.3432 7.06422C18.3451 6.99636 18.3333 6.9288 18.3086 6.86556C18.284 6.80231 18.2468 6.74466 18.1995 6.696L17.4995 5.996C17.453 5.9496 17.3978 5.91282 17.337 5.88777C17.2763 5.86272 17.2112 5.84988 17.1455 5.85C17.0797 5.85001 17.0146 5.86301 16.9539 5.88823C16.8931 5.91346 16.8379 5.95042 16.7915 5.997C16.4958 6.29127 16.1202 6.49214 15.7112 6.57463C15.3023 6.65713 14.8781 6.61761 14.4915 6.461C14.1052 6.30639 13.7743 6.03922 13.5417 5.69416C13.3092 5.3491 13.1858 4.9421 13.1875 4.526C13.19 4.45842 13.179 4.39102 13.1551 4.32776C13.1312 4.2645 13.0949 4.20666 13.0483 4.15765C13.0017 4.10864 12.9458 4.06944 12.8838 4.04236C12.8219 4.01529 12.7551 4.00089 12.6875 4H11.6875C11.5549 4 11.4277 4.05268 11.3339 4.14645C11.2402 4.24021 11.1875 4.36739 11.1875 4.5C11.1905 4.91545 11.0702 5.32245 10.8419 5.66952C10.6135 6.0166 10.2874 6.28814 9.90465 6.44979C9.52193 6.61144 9.09987 6.65594 8.69185 6.57765C8.28384 6.49937 7.90821 6.30182 7.6125 6.01C7.56684 5.96013 7.51165 5.91992 7.45018 5.89174C7.38872 5.86356 7.32223 5.84798 7.25464 5.84593C7.18706 5.84388 7.11975 5.85539 7.05669 5.8798C6.99363 5.9042 6.9361 5.94099 6.8875 5.988L6.1755 6.7C6.08176 6.79376 6.02911 6.92092 6.02911 7.0535C6.02911 7.18608 6.08176 7.31324 6.1755 7.407C6.47237 7.69762 6.67584 8.07016 6.75992 8.477C6.84399 8.88384 6.80485 9.30651 6.6475 9.691C6.62097 9.75737 6.58745 9.82073 6.5475 9.88C6.37066 10.2138 6.10728 10.494 5.78496 10.691C5.46264 10.8881 5.09325 10.9948 4.7155 11C4.64779 10.9973 4.58023 11.0082 4.5168 11.0321C4.45337 11.0559 4.39535 11.0922 4.34615 11.1387C4.29695 11.1853 4.25756 11.2413 4.23032 11.3033C4.20307 11.3654 4.18851 11.4322 4.1875 11.5V12.5C4.1875 12.6326 4.24018 12.7598 4.33395 12.8536C4.42771 12.9473 4.55489 13 4.6875 13C5.10117 12.9953 5.50688 13.1138 5.85292 13.3405C6.19896 13.5672 6.46966 13.8919 6.6305 14.273L6.6365 14.287C6.6455 14.308 6.6535 14.328 6.6605 14.35C6.80662 14.7281 6.84019 15.1404 6.75714 15.5372C6.6741 15.934 6.47799 16.2982 6.1925 16.586C6.14262 16.6331 6.10275 16.6898 6.07526 16.7527C6.04777 16.8156 6.03323 16.8834 6.0325 16.952C6.03192 17.0179 6.04454 17.0833 6.06961 17.1443C6.09468 17.2052 6.13171 17.2606 6.1785 17.307L6.8845 18.013C6.97826 18.1067 7.10542 18.1594 7.238 18.1594C7.37058 18.1594 7.49774 18.1067 7.5915 18.013C7.87992 17.7183 8.24897 17.5155 8.65231 17.4299C9.05565 17.3443 9.47528 17.3798 9.8585 17.532Z"
        fill="#6E6E6E" />
</svg>
