<svg width="20" height="20" viewBox="0 0 20 20" fill="none" xmlns="http://www.w3.org/2000/svg">
    <path d="M17.414 8.03537L12.3573 2.975C11.7315 2.35062 10.8838 2 10 2C9.11623 2 8.26851 2.35062 7.64267 2.975L2.58601 8.03537C2.39962 8.22067 2.25185 8.44114 2.15126 8.68401C2.05067 8.92688 1.99926 9.18731 2.00001 9.45021V15.9988C2.00001 16.5296 2.21072 17.0386 2.58579 17.4139C2.96087 17.7892 3.46957 18 4.00001 18H16C16.5304 18 17.0391 17.7892 17.4142 17.4139C17.7893 17.0386 18 16.5296 18 15.9988V9.45021C18.0007 9.18731 17.9493 8.92688 17.8487 8.68401C17.7481 8.44114 17.6004 8.22067 17.414 8.03537ZM12 16.6659H8V14.0416C8 13.5109 8.21072 13.0019 8.58579 12.6266C8.96086 12.2513 9.46957 12.0404 10 12.0404C10.5304 12.0404 11.0391 12.2513 11.4142 12.6266C11.7893 13.0019 12 13.5109 12 14.0416V16.6659ZM16.6667 15.9988C16.6667 16.1757 16.5964 16.3454 16.4714 16.4705C16.3464 16.5956 16.1768 16.6659 16 16.6659H13.3333V14.0416C13.3333 13.157 12.9821 12.3087 12.357 11.6832C11.7319 11.0577 10.8841 10.7063 10 10.7063C9.11595 10.7063 8.2681 11.0577 7.64298 11.6832C7.01786 12.3087 6.66667 13.157 6.66667 14.0416V16.6659H4.00001C3.8232 16.6659 3.65363 16.5956 3.5286 16.4705C3.40358 16.3454 3.33334 16.1757 3.33334 15.9988V9.45021C3.33396 9.27343 3.40413 9.104 3.52867 8.9786L8.58533 3.92023C8.96113 3.54596 9.46978 3.33585 10 3.33585C10.5302 3.33585 11.0389 3.54596 11.4147 3.92023L16.4713 8.9806C16.5954 9.1055 16.6655 9.27412 16.6667 9.45021V15.9988Z" fill="black"/>
</svg>
