<svg width="25" height="24" viewBox="0 0 25 24" fill="none" xmlns="http://www.w3.org/2000/svg">
    <path fill-rule="evenodd" clip-rule="evenodd"
        d="M24.625 12C24.625 18.6274 19.2524 24 12.625 24C5.99758 24 0.625 18.6274 0.625 12C0.625 5.37258 5.99758 0 12.625 0C19.2524 0 24.625 5.37258 24.625 12ZM14.1407 11.6842C14.1407 12.7326 13.2944 13.579 12.246 13.579C11.1976 13.579 10.3512 12.7326 10.3512 11.6842V7.89474C10.3512 6.84631 11.1976 6 12.246 6C13.2944 6 14.1407 6.84631 14.1407 7.89474V11.6842ZM12.246 7.26318C11.8986 7.26318 11.6145 7.54739 11.6145 7.89476V11.6843C11.6145 12.0316 11.8986 12.3158 12.246 12.3158C12.5997 12.3158 12.8776 12.0379 12.8776 11.6843V7.89476C12.8776 7.54739 12.5933 7.26318 12.246 7.26318ZM16.6671 11.6842H15.5934C15.5934 13.579 13.9892 14.9052 12.246 14.9052C10.5029 14.9052 8.89869 13.579 8.89869 11.6842H7.825C7.825 13.8379 9.5429 15.619 11.6145 15.9284V18H12.8776V15.9284C14.9492 15.619 16.6671 13.8379 16.6671 11.6842Z"
        fill="#6E6E6E" />
</svg>
