<svg width="51" height="51" viewBox="0 0 51 51" fill="none" xmlns="http://www.w3.org/2000/svg">
    <path
        d="M40.375 8.5H36.125V6.375C36.125 5.81141 35.9011 5.27091 35.5026 4.8724C35.1041 4.47388 34.5636 4.25 34 4.25C33.4364 4.25 32.8959 4.47388 32.4974 4.8724C32.0989 5.27091 31.875 5.81141 31.875 6.375V8.5H19.125V6.375C19.125 5.81141 18.9011 5.27091 18.5026 4.8724C18.1041 4.47388 17.5636 4.25 17 4.25C16.4364 4.25 15.8959 4.47388 15.4974 4.8724C15.0989 5.27091 14.875 5.81141 14.875 6.375V8.5H10.625C8.93425 8.5 7.31274 9.17165 6.11719 10.3672C4.92165 11.5627 4.25 13.1842 4.25 14.875V40.375C4.25 42.0658 4.92165 43.6873 6.11719 44.8828C7.31274 46.0784 8.93425 46.75 10.625 46.75H40.375C42.0658 46.75 43.6873 46.0784 44.8828 44.8828C46.0784 43.6873 46.75 42.0658 46.75 40.375V14.875C46.75 13.1842 46.0784 11.5627 44.8828 10.3672C43.6873 9.17165 42.0658 8.5 40.375 8.5ZM42.5 40.375C42.5 40.9386 42.2761 41.4791 41.8776 41.8776C41.4791 42.2761 40.9386 42.5 40.375 42.5H10.625C10.0614 42.5 9.52091 42.2761 9.1224 41.8776C8.72388 41.4791 8.5 40.9386 8.5 40.375V25.5H42.5V40.375ZM42.5 21.25H8.5V14.875C8.5 14.3114 8.72388 13.7709 9.1224 13.3724C9.52091 12.9739 10.0614 12.75 10.625 12.75H14.875V14.875C14.875 15.4386 15.0989 15.9791 15.4974 16.3776C15.8959 16.7761 16.4364 17 17 17C17.5636 17 18.1041 16.7761 18.5026 16.3776C18.9011 15.9791 19.125 15.4386 19.125 14.875V12.75H31.875V14.875C31.875 15.4386 32.0989 15.9791 32.4974 16.3776C32.8959 16.7761 33.4364 17 34 17C34.5636 17 35.1041 16.7761 35.5026 16.3776C35.9011 15.9791 36.125 15.4386 36.125 14.875V12.75H40.375C40.9386 12.75 41.4791 12.9739 41.8776 13.3724C42.2761 13.7709 42.5 14.3114 42.5 14.875V21.25Z"
        fill="#F9BE2D" />
</svg>
