<svg width="28" height="25" viewBox="0 0 28 25" fill="none" xmlns="http://www.w3.org/2000/svg">
    <rect width="27.5" height="24.5536" rx="12.2768" fill="#A9B8FF" fill-opacity="0.5" />
    <rect width="27.5" height="24.5536" rx="12.2768" fill="black" fill-opacity="0.2" />
    <path
        d="M6.91602 12.5C6.91637 10.947 7.42707 9.43724 8.36951 8.20295C9.31194 6.96866 10.6339 6.0783 12.1319 5.66888C13.6299 5.25946 15.221 5.35368 16.6602 5.93704C18.0994 6.5204 19.307 7.56056 20.0972 8.89745C20.8874 10.2343 21.2163 11.7939 21.0334 13.336C20.8504 14.8781 20.1658 16.3174 19.0848 17.4324C18.0037 18.5473 16.5863 19.2761 15.0505 19.5065C13.5148 19.737 11.9458 19.4563 10.5852 18.7078L7.83118 19.5465C7.70835 19.5839 7.57765 19.5872 7.45306 19.5561C7.32848 19.525 7.21471 19.4606 7.12391 19.3698C7.03311 19.279 6.9687 19.1652 6.93757 19.0406C6.90644 18.916 6.90976 18.7853 6.94718 18.6625L7.78585 15.9042C7.2146 14.8606 6.91545 13.6898 6.91602 12.5ZM11.166 11.7917C11.166 11.9795 11.2406 12.1597 11.3735 12.2925C11.5063 12.4254 11.6865 12.5 11.8744 12.5H16.1244C16.3122 12.5 16.4924 12.4254 16.6252 12.2925C16.7581 12.1597 16.8327 11.9795 16.8327 11.7917C16.8327 11.6038 16.7581 11.4236 16.6252 11.2908C16.4924 11.1579 16.3122 11.0833 16.1244 11.0833H11.8744C11.6865 11.0833 11.5063 11.1579 11.3735 11.2908C11.2406 11.4236 11.166 11.6038 11.166 11.7917ZM11.8744 13.9167C11.6865 13.9167 11.5063 13.9913 11.3735 14.1241C11.2406 14.257 11.166 14.4371 11.166 14.625C11.166 14.8128 11.2406 14.993 11.3735 15.1259C11.5063 15.2587 11.6865 15.3333 11.8744 15.3333H14.7077C14.8955 15.3333 15.0757 15.2587 15.2086 15.1259C15.3414 14.993 15.416 14.8128 15.416 14.625C15.416 14.4371 15.3414 14.257 15.2086 14.1241C15.0757 13.9913 14.8955 13.9167 14.7077 13.9167H11.8744Z"
        fill="#1E1C1C" />
</svg>
