<svg width="74" height="74" viewBox="0 0 74 74" fill="none" xmlns="http://www.w3.org/2000/svg">
    <path
        d="M37.0003 6.16663C30.9021 6.16663 24.9408 7.97497 19.8703 11.363C14.7997 14.751 10.8478 19.5665 8.51405 25.2006C6.18035 30.8346 5.56975 37.0342 6.75946 43.0152C7.94917 48.9963 10.8858 54.4903 15.1979 58.8024C19.51 63.1145 25.004 66.0511 30.9851 67.2408C36.9661 68.4305 43.1657 67.8199 48.7997 65.4862C54.4338 63.1525 59.2493 59.2006 62.6373 54.13C66.0253 49.0595 67.8337 43.0982 67.8337 37C67.8337 32.9509 67.0361 28.9414 65.4866 25.2006C63.9371 21.4597 61.6659 18.0606 58.8028 15.1975C55.9397 12.3344 52.5406 10.0632 48.7997 8.51367C45.0589 6.96415 41.0494 6.16663 37.0003 6.16663ZM54.5013 31.564L36.0013 48.5224C35.4156 49.0595 34.6451 49.3496 33.8506 49.3324C33.0561 49.3152 32.299 48.9918 31.7371 48.4299L22.4871 39.1799C22.1926 38.8954 21.9577 38.5552 21.7961 38.179C21.6345 37.8029 21.5495 37.3983 21.5459 36.9889C21.5423 36.5795 21.6204 36.1734 21.7754 35.7945C21.9304 35.4156 22.1594 35.0713 22.4489 34.7818C22.7384 34.4923 23.0826 34.2634 23.4616 34.1083C23.8405 33.9533 24.2465 33.8753 24.6559 33.8788C25.0653 33.8824 25.4699 33.9675 25.8461 34.1291C26.2223 34.2907 26.5625 34.5256 26.8469 34.82L34.0095 41.9826L50.3327 27.0192C50.9354 26.4664 51.733 26.1757 52.55 26.2109C53.3671 26.2462 54.1366 26.6046 54.6894 27.2073C55.2422 27.81 55.533 28.6076 55.4977 29.4246C55.4624 30.2417 55.104 31.0112 54.5013 31.564Z"
        fill="#F9BE2D" />
</svg>
