<svg width="28" height="25" viewBox="0 0 28 25" fill="none" xmlns="http://www.w3.org/2000/svg">
    <rect width="27.5" height="24.5536" rx="12.2768" fill="#A9B8FF" fill-opacity="0.5" />
    <rect width="27.5" height="24.5536" rx="12.2768" fill="black" fill-opacity="0.2" />
    <path
        d="M12.251 7.84747C11.3151 8.10338 10.751 8.82153 10.751 9.49999C10.751 10.1785 11.3151 10.8966 12.251 11.1525V7.84747Z"
        fill="#1E1C1C" />
    <path
        d="M13.751 12.8475V16.1525C14.6869 15.8966 15.251 15.1785 15.251 14.5C15.251 13.8215 14.6869 13.1034 13.751 12.8475Z"
        fill="#1E1C1C" />
    <path fill-rule="evenodd" clip-rule="evenodd"
        d="M22 12.5C22 17.1944 18.1944 21 13.5 21C8.80558 21 5 17.1944 5 12.5C5 7.80558 8.80558 4 13.5 4C18.1944 4 22 7.80558 22 12.5ZM13.5 6.7625C13.8521 6.7625 14.1375 7.04792 14.1375 7.4V7.66922C15.5233 7.91737 16.6875 8.95857 16.6875 10.375C16.6875 10.7271 16.4021 11.0125 16.05 11.0125C15.6979 11.0125 15.4125 10.7271 15.4125 10.375C15.4125 9.79831 14.933 9.18788 14.1375 8.97036V11.9192C15.5233 12.1674 16.6875 13.2086 16.6875 14.625C16.6875 16.0414 15.5233 17.0826 14.1375 17.3308V17.6C14.1375 17.9521 13.8521 18.2375 13.5 18.2375C13.1479 18.2375 12.8625 17.9521 12.8625 17.6V17.3308C11.4766 17.0826 10.3125 16.0414 10.3125 14.625C10.3125 14.2729 10.5979 13.9875 10.95 13.9875C11.3021 13.9875 11.5875 14.2729 11.5875 14.625C11.5875 15.2017 12.067 15.8121 12.8625 16.0296V13.0808C11.4766 12.8326 10.3125 11.7914 10.3125 10.375C10.3125 8.95857 11.4766 7.91737 12.8625 7.66922V7.4C12.8625 7.04792 13.1479 6.7625 13.5 6.7625Z"
        fill="#1E1C1C" />
</svg>
