<svg width="54" height="55" viewBox="0 0 54 55" fill="none" xmlns="http://www.w3.org/2000/svg">
    <path
        d="M6.75 38.75H47.25M27 18.5L22.5 27.5M27 18.5L31.5 27.5M27 18.5H16.875C15.3832 18.5 13.9524 17.9074 12.8975 16.8525C11.8426 15.7976 11.25 14.3668 11.25 12.875C11.25 11.3832 11.8426 9.95241 12.8975 8.89752C13.9524 7.84263 15.3832 7.25 16.875 7.25C24.75 7.25 27 18.5 27 18.5ZM27 18.5H37.125C38.6167 18.5 40.0475 17.9074 41.1025 16.8525C42.1573 15.7976 42.75 14.3668 42.75 12.875C42.75 11.3832 42.1573 9.95241 41.1025 8.89752C40.0475 7.84263 38.6167 7.25 37.125 7.25C29.25 7.25 27 18.5 27 18.5ZM13.95 47.75H40.05C42.5702 47.75 43.8305 47.75 44.793 47.2595C45.6397 46.8282 46.3282 46.1397 46.7595 45.293C47.25 44.3305 47.25 43.0702 47.25 40.55V25.7C47.25 23.1798 47.25 21.9196 46.7595 20.957C46.3282 20.1103 45.6397 19.4219 44.793 18.9905C43.8305 18.5 42.5702 18.5 40.05 18.5H13.95C11.4298 18.5 10.1696 18.5 9.20705 18.9905C8.3603 19.4219 7.67189 20.1103 7.24048 20.957C6.75 21.9196 6.75 23.1798 6.75 25.7V40.55C6.75 43.0702 6.75 44.3305 7.24048 45.293C7.67189 46.1397 8.3603 46.8282 9.20705 47.2595C10.1696 47.75 11.4298 47.75 13.95 47.75Z"
        stroke="#F9BE2D" stroke-width="4.5" stroke-linecap="round" stroke-linejoin="round" />
</svg>
