<svg width="40" height="39" viewBox="0 0 40 39" fill="none" xmlns="http://www.w3.org/2000/svg">
    <path d="M37.145 19.7395C37.145 18.3465 37.0283 17.3299 36.7757 16.2757H20.3477V22.5633H29.9905C29.7962 24.1258 28.7464 26.479 26.4133 28.0603L26.3806 28.2708L31.5749 32.1672L31.9347 32.2019C35.2397 29.2463 37.145 24.8976 37.145 19.7395Z" fill="#4285F4"/>
    <path d="M20.3467 36.306C25.0709 36.306 29.0369 34.7999 31.9338 32.2021L26.4124 28.0603C24.9349 29.0581 22.9518 29.7546 20.3467 29.7546C15.7197 29.7546 11.7926 26.7991 10.3927 22.714L10.1875 22.7309L4.78645 26.7784L4.71582 26.9685C7.59311 32.5032 13.5033 36.306 20.3467 36.306Z" fill="#34A853"/>
    <path d="M10.3938 22.7141C10.0244 21.6599 9.81063 20.5303 9.81063 19.3632C9.81063 18.1959 10.0244 17.0664 10.3743 16.0122L10.3646 15.7877L4.89584 11.6752L4.71692 11.7576C3.53104 14.0544 2.85059 16.6335 2.85059 19.3632C2.85059 22.0928 3.53104 24.6718 4.71692 26.9685L10.3938 22.7141Z" fill="#FBBC05"/>
    <path d="M20.3468 8.97159C23.6324 8.97159 25.8487 10.3458 27.1124 11.4943L32.0505 6.82554C29.0177 4.09587 25.071 2.42041 20.3468 2.42041C13.5034 2.42041 7.59313 6.2231 4.71582 11.7577L10.3733 16.0123C11.7926 11.9272 15.7198 8.97159 20.3468 8.97159Z" fill="#EB4335"/>
</svg>
