<svg width="20" height="20" viewBox="0 0 20 20" fill="none" xmlns="http://www.w3.org/2000/svg">
    <path d="M6.50391 8.53656H13.008" stroke="#F9BE2D" stroke-width="1.21951"
        stroke-linecap="round" />
    <path d="M6.50391 11.3821H10.9755" stroke="#F9BE2D" stroke-width="1.21951"
        stroke-linecap="round" />
    <path
        d="M13.8211 2.7137C12.6252 2.02195 11.2369 1.62604 9.75606 1.62604C5.26594 1.62604 1.62598 5.266 1.62598 9.75612C1.62598 11.0567 1.93136 12.2859 2.47432 13.376C2.61861 13.6657 2.66664 13.9969 2.58298 14.3095L2.09875 16.1193C1.88854 16.9049 2.60729 17.6236 3.39293 17.4134L5.20272 16.9292C5.51535 16.8456 5.84647 16.8936 6.13616 17.0378C7.22628 17.5808 8.45549 17.8862 9.75606 17.8862C14.2461 17.8862 17.8861 14.2462 17.8861 9.75612C17.8861 8.27531 17.4902 6.88691 16.7985 5.69108"
        stroke="#F9BE2D" stroke-width="1.21951" stroke-linecap="round" />
</svg>
