<svg width="20" height="20" viewBox="0 0 20 20" fill="none" xmlns="http://www.w3.org/2000/svg">
    <path
        d="M11.5966 12.9574L10.2404 11.6126C9.58602 10.9635 9.25878 10.6391 8.88334 10.5204C8.55309 10.4161 8.19813 10.42 7.87023 10.5314C7.49738 10.6582 7.17727 10.9896 6.53706 11.6526L3.2878 14.8619M11.5966 12.9574L11.8741 12.6822C12.5294 12.0324 12.8569 11.7075 13.2328 11.5889C13.5634 11.4846 13.9186 11.4887 14.2467 11.6006C14.6198 11.7278 14.9398 12.0601 15.5799 12.7248L16.2601 13.4093M11.5966 12.9574L14.8576 16.2248M3.2878 14.8619C3.31303 15.0668 3.35599 15.2287 3.42918 15.3724C3.58507 15.6783 3.83381 15.9271 4.13977 16.083C4.4876 16.2602 4.94292 16.2602 5.85358 16.2602H13.6585C14.1904 16.2602 14.5671 16.2602 14.8576 16.2248M3.2878 14.8619C3.25195 14.5709 3.25195 14.1931 3.25195 13.6586V5.8537C3.25195 4.94305 3.25195 4.48772 3.42918 4.1399C3.58507 3.83394 3.83381 3.58519 4.13977 3.4293C4.4876 3.25208 4.94292 3.25208 5.85358 3.25208H13.6585C14.5691 3.25208 15.0245 3.25208 15.3723 3.4293C15.6782 3.58519 15.927 3.83394 16.0828 4.1399C16.2601 4.48772 16.2601 4.94305 16.2601 5.8537V13.4093M16.2601 13.4093V13.6586C16.2601 14.5692 16.2601 15.0246 16.0828 15.3724C15.927 15.6783 15.6782 15.9271 15.3723 16.083C15.2276 16.1567 15.0644 16.1997 14.8576 16.2248M13.8211 7.31703C13.8211 8.21508 13.0931 8.94305 12.195 8.94305C11.297 8.94305 10.569 8.21508 10.569 7.31703C10.569 6.419 11.297 5.69101 12.195 5.69101C13.0931 5.69101 13.8211 6.419 13.8211 7.31703Z"
        stroke="#F9BE2D" stroke-width="1.62602" stroke-linecap="round" stroke-linejoin="round" />
</svg>
