<svg width="15" height="20" viewBox="0 0 15 20" fill="none" xmlns="http://www.w3.org/2000/svg">
    <path fill-rule="evenodd" clip-rule="evenodd"
        d="M10.5262 9.4736C10.5262 11.221 9.1156 12.6316 7.3684 12.6316C5.621 12.6316 4.2104 11.221 4.2104 9.4736V3.1579C4.2104 1.41052 5.621 0 7.3684 0C9.1156 0 10.5262 1.41052 10.5262 3.1579V9.4736ZM7.3684 2.1053C6.7894 2.1053 6.3158 2.57898 6.3158 3.15794V9.4738C6.3158 10.0526 6.7894 10.5264 7.3684 10.5264C7.9578 10.5264 8.421 10.0632 8.421 9.4738V3.15794C8.421 2.57898 7.9472 2.1053 7.3684 2.1053ZM14.7368 9.4736H12.9474C12.9474 12.6316 10.2736 14.842 7.3684 14.842C4.4632 14.842 1.78948 12.6316 1.78948 9.4736H0C0 13.0632 2.86316 16.0316 6.3158 16.5474V20H8.421V16.5474C11.8736 16.0316 14.7368 13.0632 14.7368 9.4736Z"
        fill="white" />
</svg>
