<svg width="24" height="24" viewBox="0 0 24 24" fill="none" xmlns="http://www.w3.org/2000/svg">
    <path
        d="M18.2146 2.57141C18.4223 2.57141 18.6153 2.67159 18.7351 2.83698L18.7818 2.91175L22.2161 9.35124L22.2529 9.43901L22.2629 9.47141L22.2774 9.53767L22.2854 9.6131L22.2836 9.6983L22.286 9.64284C22.286 9.73292 22.2675 9.81872 22.234 9.89664L22.2093 9.94772L22.1745 10.0048L22.1293 10.0635L12.5145 21.1754C12.4287 21.2906 12.3112 21.3666 12.1835 21.4031L12.1338 21.4152L12.0503 21.4268L12.0001 21.4286L11.9139 21.4227L11.8409 21.4089L11.7524 21.3799L11.7304 21.3694C11.653 21.3352 11.5818 21.2842 11.5223 21.2173L1.8609 10.0511L1.80766 9.97601L1.7666 9.89621L1.73687 9.8111L1.71704 9.69872L1.7168 9.58953L1.72953 9.50492L1.73775 9.47132L1.76681 9.38895L1.79025 9.34035L5.21882 2.91175C5.31657 2.72845 5.49577 2.60535 5.69809 2.57745L5.78604 2.57141H18.2146ZM15.3483 10.2857H8.64972L12.0011 18.9943L15.3483 10.2857ZM7.27318 10.2857H3.76233L10.082 17.5868L7.27318 10.2857ZM20.2357 10.2857H16.7274L13.922 17.5808L20.2357 10.2857ZM8.59229 3.85627H6.1709L3.42718 8.99998H7.22004L8.59229 3.85627ZM14.0771 3.85627H9.92258L8.55032 8.99998H15.4486L14.0771 3.85627ZM17.8289 3.85627H15.4074L16.7797 8.99998H20.5709L17.8289 3.85627Z"
        fill="#F9BE2D" />
</svg>
