<svg width="40" height="40" viewBox="0 0 40 40" fill="none" xmlns="http://www.w3.org/2000/svg">
    <path
        d="M16.25 13.75C17 13.75 17.5 13.25 17.5 12.5C17.5 11.75 17 11.25 16.25 11.25C10 11.25 5 16.25 5 22.5C5 26 7.75 28.75 11.25 28.75C14.75 28.75 17.5 26 17.5 22.5C17.5 19 14.75 16.25 11.25 16.25C10.875 16.25 10.375 16.25 10 16.375C11.625 14.75 13.75 13.75 16.25 13.75Z"
        fill="black" />
    <path
        d="M28.75 16.25C28.375 16.25 27.875 16.25 27.5 16.375C29.125 14.75 31.25 13.75 33.75 13.75C34.5 13.75 35 13.25 35 12.5C35 11.75 34.5 11.25 33.75 11.25C27.5 11.25 22.5 16.25 22.5 22.5C22.5 26 25.25 28.75 28.75 28.75C32.25 28.75 35 26 35 22.5C35 19 32.25 16.25 28.75 16.25Z"
        fill="black" />
</svg>
