<svg width="25" height="25" viewBox="0 0 25 25" fill="none" xmlns="http://www.w3.org/2000/svg">
    <path
        d="M11.7986 22.0819C6.08251 22.0819 1.42871 17.5573 1.42871 11.9999C1.42871 6.44256 6.08251 1.91797 11.7986 1.91797C17.5147 1.91797 22.1685 6.44256 22.1685 11.9999C22.1685 17.5573 17.5147 22.0819 11.7986 22.0819ZM11.7986 3.39338C6.9121 3.39338 2.94625 7.25895 2.94625 11.9999C2.94625 16.7409 6.9121 20.6065 11.7986 20.6065C16.6851 20.6065 20.6509 16.7409 20.6509 11.9999C20.6509 7.25895 16.6851 3.39338 11.7986 3.39338Z"
        fill="#292D32" />
    <path
        d="M22.4214 23.0657C22.2292 23.0657 22.037 22.9968 21.8852 22.8493L19.8618 20.882C19.7207 20.7432 19.6416 20.5559 19.6416 20.3607C19.6416 20.1656 19.7207 19.9782 19.8618 19.8394C20.1552 19.5542 20.6409 19.5542 20.9342 19.8394L22.9576 21.8066C23.251 22.0919 23.251 22.564 22.9576 22.8493C22.8059 22.9968 22.6137 23.0657 22.4214 23.0657Z"
        fill="#292D32" />
</svg>
