<svg width="20" height="20" viewBox="0 0 20 20" fill="none" xmlns="http://www.w3.org/2000/svg">
    <path
        d="M19.421 3.66912L16.1411 16.7892C15.6711 18.6592 14.071 19.4992 12.671 19.4992C12.661 19.4992 12.6511 19.4992 12.6511 19.4992C11.2411 19.4892 9.63107 18.6292 9.19107 16.7392L8.33108 13.0893L13.7111 7.70916C14.1011 7.31916 14.1011 6.67924 13.7111 6.28924C13.3211 5.89924 12.681 5.89924 12.291 6.28924L6.91104 11.6691L3.26107 10.8093C1.37107 10.3693 0.511065 8.75931 0.501065 7.35931C0.491065 5.94931 1.33109 4.32931 3.21109 3.85931L16.3311 0.579279C17.2011 0.359279 18.1111 0.609201 18.7511 1.2492C19.3911 1.8892 19.641 2.79912 19.421 3.66912Z"
        fill="white" />
</svg>
